<svg width="619" height="121" viewBox="0 0 619 121" fill="none" xmlns="http://www.w3.org/2000/svg">
<path fill-rule="evenodd" clip-rule="evenodd" d="M30.5382 74.8633C27.6182 75.4283 25.2482 76.7464 23.4082 78.8174C21.5782 80.8874 20.3282 83.2403 19.6682 85.8763C19.0082 88.5113 18.9182 91.2884 19.3882 94.2054C19.8582 97.1234 20.8881 99.7354 22.4881 102.041C24.0881 104.347 26.2382 106.159 28.9182 107.477C31.5982 108.794 34.8181 109.171 38.5881 108.606C42.7281 108.041 46.4481 106.582 49.7381 104.229C53.0381 101.876 55.3382 99.1474 56.6582 96.0414C57.5982 93.7824 58.1382 91.4053 58.2782 88.9113C58.4282 86.4173 58.1381 83.9233 57.4381 81.4283C56.7281 78.9343 55.5781 76.4873 53.9781 74.0873C52.3781 71.6873 50.2581 69.4993 47.6181 67.5223C45.1781 65.7343 43.0582 63.6863 41.2682 61.3813C39.4782 59.0753 38.0682 56.6283 37.0382 54.0393C35.9982 51.4513 35.3682 48.7683 35.1282 45.9923C34.8882 43.2153 35.1482 40.4623 35.9082 37.7333C32.8882 35.4743 30.3982 32.6974 28.4182 29.4034C26.4482 26.3914 25.5081 23.3324 25.5981 20.2264C25.6881 17.1204 26.3282 14.2494 27.5082 11.6144C28.6782 8.97935 30.2081 6.67335 32.0881 4.69635C33.9781 2.71935 35.7681 1.35534 37.4581 0.602342C39.1481 -0.150658 40.5381 -0.197649 41.6181 0.461351C42.7081 1.11935 43.0082 2.76734 42.5382 5.40234C42.0682 8.41434 42.0981 11.2613 42.6081 13.9443C43.1281 16.6263 44.0481 19.0974 45.3681 21.3564C49.8781 16.9324 55.1981 13.3553 61.3181 10.6263C67.4381 7.89634 73.8782 6.62635 80.6582 6.81435C85.8382 6.90835 90.0981 7.96736 93.4381 9.99036C96.7781 12.0144 99.1782 14.4853 100.638 17.4023C102.098 20.3203 102.618 23.4973 102.188 26.9323C101.768 30.3683 100.398 33.5684 98.0981 36.5334C95.7881 39.4974 92.5182 42.0393 88.2882 44.1563C84.0482 46.2743 78.8682 47.4274 72.7582 47.6154C66.1682 47.8984 59.5281 47.2393 52.8481 45.6393C53.8781 47.0513 55.1482 48.5094 56.6582 50.0164C58.1682 51.5214 59.8581 52.9333 61.7381 54.2513C65.6981 57.3573 68.7781 60.6284 70.9881 64.0634C73.1981 67.4984 74.7582 71.0054 75.6482 74.5814C76.5382 78.1584 76.7982 81.7343 76.4282 85.3113C76.0482 88.8883 75.2482 92.3233 74.0282 95.6173C72.7982 98.7233 71.0082 101.712 68.6582 104.582C66.3082 107.453 63.5781 109.971 60.4681 112.136C57.3681 114.3 53.9282 116.042 50.1682 117.359C46.3982 118.677 42.5381 119.383 38.5881 119.477C31.9081 119.665 25.7682 118.442 20.1582 115.806C14.5582 113.171 10.0481 109.783 6.60813 105.641C3.17813 101.5 1.05816 96.8413 0.258159 91.6643C-0.541841 86.4873 0.518203 81.4523 3.4282 76.5583C5.5982 72.8873 8.01811 70.2513 10.7081 68.6523C13.3881 67.0513 16.0482 66.1103 18.6782 65.8283C21.3182 65.5453 23.7682 65.8043 26.0182 66.6043C28.2782 67.4043 30.0682 68.3453 31.3882 69.4283C32.7082 70.5103 33.3681 71.5934 33.3681 72.6754C33.3681 73.7584 32.4182 74.4873 30.5382 74.8633ZM284.668 71.1943L284.478 71.5154C284.628 71.1064 284.788 70.6934 284.948 70.2754C287.588 63.5454 291.958 55.7103 298.078 46.7683C299.118 45.2623 300.268 43.5213 301.538 41.5443C302.808 39.5683 304.198 37.5443 305.708 35.4743H292.578C291.448 35.4743 290.858 35.1444 290.808 34.4854C290.758 33.8274 291.018 33.0743 291.588 32.2263C292.148 31.3793 292.978 30.6033 294.058 29.8973C295.138 29.1913 296.288 28.7914 297.518 28.6974C301.088 28.3214 304.838 27.5203 308.738 26.2973C312.648 25.0733 315.818 23.9444 318.268 22.9084C320.338 22.0614 322.478 21.2384 324.698 20.4384C326.908 19.6384 328.738 19.1673 330.198 19.0263C331.658 18.8853 332.478 19.1913 332.668 19.9443C332.858 20.6973 331.918 22.2033 329.848 24.4613L329.278 25.1674C334.078 24.5094 338.528 23.9204 342.618 23.4034C346.718 22.8854 349.748 22.3914 351.728 21.9204C353.238 21.6384 354.198 21.7563 354.628 22.2733C355.048 22.7913 355.068 23.5673 354.698 24.6033C354.318 25.6383 353.608 26.7673 352.578 27.9913C351.538 29.2153 350.338 30.3913 348.978 31.5213C347.608 32.6503 346.198 33.5914 344.738 34.3444C343.278 35.0974 341.938 35.4743 340.718 35.4743H321.238C318.878 38.7683 316.508 42.1804 314.108 45.7094C311.708 49.2394 309.558 52.4163 307.678 55.2393C305.608 58.3453 303.778 61.6634 302.178 65.1924C300.578 68.7224 299.328 71.9933 298.438 75.0053C297.538 78.0163 297.018 80.6293 296.878 82.8403C296.738 85.0523 297.088 86.4403 297.938 87.0053C299.068 87.7583 300.548 87.9463 302.388 87.5703C304.218 87.1933 306.248 86.3233 308.458 84.9583C310.668 83.5933 312.978 81.7583 315.378 79.4523C317.778 77.1463 320.108 74.3934 322.368 71.1934C323.308 69.6874 324.298 68.6993 325.328 68.2283C326.368 67.7573 327.208 67.6874 327.868 68.0164C328.528 68.3454 328.878 69.0523 328.928 70.1343C328.978 71.2163 328.528 72.5574 327.588 74.1584C325.328 78.0164 322.768 81.5704 319.888 84.8174C317.018 88.0644 314.008 90.8643 310.858 93.2173C307.708 95.5703 304.478 97.4293 301.188 98.7943C297.888 100.159 294.688 100.841 291.588 100.841C288.288 100.841 285.628 99.6884 283.608 97.3824C281.588 95.0764 280.648 91.6643 280.788 87.1463C280.808 86.4513 280.858 85.7303 280.938 84.9823L280.868 85.0173L280.718 85.1703C277.328 88.4643 273.798 91.2643 270.128 93.5703C266.458 95.8763 262.668 97.6643 258.758 98.9353C254.858 100.206 251.018 100.841 247.258 100.841C242.928 100.841 239.258 99.9703 236.238 98.2293C233.228 96.4883 231.018 94.1353 229.608 91.1703C228.578 89.0133 228.018 86.5694 227.908 83.8394L227.928 83.8904C227.498 84.3224 227.078 84.7493 226.638 85.1703C223.258 88.4643 219.728 91.2643 216.058 93.5703C212.378 95.8763 208.598 97.6643 204.688 98.9353C200.778 100.206 196.948 100.841 193.178 100.841C188.848 100.841 185.178 99.9703 182.168 98.2293C179.158 96.4883 176.948 94.1353 175.538 91.1703C174.268 88.5163 173.708 85.4283 173.838 81.9073L173.848 81.9103C172.188 82.7343 170.508 83.2333 168.828 83.4053C166.518 83.6403 164.338 83.4053 162.258 82.6993C160.188 81.9933 158.408 81.0294 156.898 79.8054C154.638 83.0994 152.308 86.0884 149.908 88.7704C147.508 91.4524 145.108 93.7353 142.708 95.6173C140.308 97.5003 137.858 98.9113 135.368 99.8533C132.878 100.794 130.358 101.123 127.818 100.841C124.148 100.465 121.508 99.2173 119.908 97.1003C118.308 94.9823 117.418 92.3234 117.228 89.1234C113.748 93.0764 110.168 96.0174 106.498 97.9474C102.828 99.8764 99.4381 100.841 96.3281 100.841C91.8081 100.841 88.9182 99.2414 87.6482 96.0414C86.3782 92.8414 86.5382 88.5584 88.1382 83.1934C89.6482 77.9224 91.5981 73.0043 93.9981 68.4403C96.3981 63.8753 98.8282 59.8983 101.268 56.5103C102.398 54.9103 103.418 53.5923 104.308 52.5573C105.198 51.5213 106.118 50.6983 107.058 50.0863C107.998 49.4743 108.988 49.0273 110.028 48.7453C111.058 48.4623 112.378 48.1803 113.978 47.8983C115.488 47.7103 116.848 47.5923 118.068 47.5453C119.298 47.4983 120.238 47.6623 120.898 48.0393C121.558 48.4153 121.838 49.0274 121.748 49.8744C121.648 50.7214 121.038 51.9453 119.908 53.5453C114.918 60.5103 111.128 66.2044 108.548 70.6284C105.958 75.0524 104.238 78.5113 103.388 81.0053C102.538 83.4993 102.378 85.2174 102.898 86.1584C103.418 87.0994 104.288 87.5703 105.508 87.5703C107.108 87.5703 108.568 87.1463 109.888 86.2993C111.198 85.4523 112.468 84.2993 113.698 82.8403C114.918 81.3813 116.098 79.7113 117.228 77.8283C118.358 75.9463 119.528 73.9694 120.758 71.8994C121.888 69.1694 123.178 66.4873 124.638 63.8513C126.098 61.2163 127.628 58.7693 129.228 56.5103C130.358 54.9103 131.368 53.5923 132.258 52.5573C133.158 51.5213 134.078 50.6983 135.018 50.0863C135.958 49.4743 136.948 49.0273 137.978 48.7453C139.018 48.4623 140.328 48.1803 141.928 47.8983C143.438 47.7103 144.828 47.5923 146.098 47.5453C147.368 47.4983 148.308 47.6623 148.918 48.0393C149.528 48.4153 149.788 49.0274 149.698 49.8744C149.608 50.7214 148.988 51.9453 147.858 53.5453C142.878 60.5103 139.298 66.1573 137.128 70.4873C134.968 74.8163 133.678 78.2284 133.248 80.7234C132.828 83.2174 133.058 84.9343 133.958 85.8763C134.848 86.8173 135.858 87.3823 136.988 87.5703C139.348 88.0413 141.858 86.9113 144.548 84.1823C147.228 81.4523 149.888 77.8753 152.518 73.4523C151.488 71.0993 150.968 68.7224 150.968 66.3224C150.968 63.9224 151.348 61.6403 152.098 59.4753C153.608 54.9573 155.558 51.6864 157.958 49.6634C160.358 47.6394 162.518 46.7923 164.448 47.1213C166.378 47.4513 167.698 48.9334 168.408 51.5684C169.108 54.2044 168.568 57.9224 166.778 62.7224C166.118 64.5104 165.318 66.3223 164.378 68.1573C163.438 69.9933 162.448 71.7103 161.418 73.3103C162.358 74.2523 163.508 74.9343 164.878 75.3583C166.238 75.7813 167.628 75.9464 169.038 75.8524C170.448 75.7584 171.818 75.3344 173.138 74.5814C174.268 73.9324 175.268 73.0023 176.128 71.7933L176.038 71.9304C176.578 70.5774 177.208 69.2024 177.938 67.8044C179.538 64.6044 181.578 61.5223 184.078 58.5573C186.568 55.5923 189.348 53.1214 192.408 51.1454C195.468 49.1684 198.688 47.8514 202.078 47.1924C205.468 46.5334 208.848 46.9094 212.238 48.3214C214.778 49.4514 216.708 50.9103 218.028 52.6983C219.348 54.4863 220.058 56.4633 220.148 58.6273C220.238 60.7923 219.748 63.0284 218.668 65.3344C217.578 67.6404 215.908 69.7813 213.658 71.7583C210.638 74.4873 206.998 76.7693 202.708 78.6053C198.428 80.4403 194.118 81.6873 189.798 82.3463C190.268 84.4173 191.228 85.9934 192.688 87.0764C194.148 88.1584 195.718 88.8414 197.418 89.1234C199.868 89.5934 202.598 89.4293 205.608 88.6293C208.618 87.8293 211.628 86.6053 214.638 84.9583C217.658 83.3113 220.548 81.3113 223.328 78.9583C225.948 76.7373 228.248 74.3074 230.238 71.6674L230.168 71.7863C230.688 70.4793 231.308 69.1524 232.008 67.8044C233.608 64.6044 235.658 61.5223 238.148 58.5573C240.638 55.5923 243.418 53.1214 246.478 51.1454C249.538 49.1684 252.758 47.8514 256.148 47.1924C259.538 46.5334 262.928 46.9094 266.318 48.3214C268.858 49.4514 270.788 50.9103 272.098 52.6983C273.418 54.4863 274.128 56.4633 274.218 58.6273C274.318 60.7923 273.818 63.0284 272.738 65.3344C271.658 67.6404 269.988 69.7813 267.728 71.7583C264.718 74.4873 261.068 76.7693 256.788 78.6053C252.498 80.4403 248.198 81.6873 243.868 82.3463C244.338 84.4173 245.298 85.9934 246.758 87.0764C248.218 88.1584 249.798 88.8414 251.488 89.1234C253.938 89.5934 256.668 89.4293 259.678 88.6293C262.688 87.8293 265.698 86.6053 268.718 84.9583C271.728 83.3113 274.618 81.3113 277.398 78.9583C280.178 76.6053 282.598 74.0173 284.668 71.1943ZM520.498 71.7924L520.528 71.7383C522.178 68.2303 523.938 64.5893 525.808 60.8163C528.538 55.3103 531.478 49.8743 534.628 44.5093C537.788 39.1443 541.098 33.9914 544.588 29.0504C548.068 24.1094 551.738 19.7083 555.598 15.8493C558.048 13.4023 560.448 11.7323 562.798 10.8373C565.148 9.94334 567.218 9.68434 569.008 10.0613C570.798 10.4373 572.228 11.3553 573.318 12.8143C574.398 14.2733 574.888 16.0854 574.798 18.2494C574.798 19.8504 574.228 21.8264 573.098 24.1794C571.978 26.5324 570.488 29.0733 568.658 31.8033C566.818 34.5323 564.728 37.4033 562.368 40.4153C560.018 43.4273 557.668 46.3924 555.318 49.3094C549.668 56.0864 543.268 63.2863 536.108 70.9103C537.898 73.5463 539.788 75.3583 541.758 76.3463C543.738 77.3343 545.688 77.7113 547.618 77.4753C549.548 77.2403 551.338 76.5343 552.988 75.3583C554.438 74.3193 555.688 73.1174 556.738 71.7494V71.7484C557.258 70.4544 557.868 69.1394 558.558 67.8044C560.158 64.6044 562.208 61.5223 564.698 58.5573C567.198 55.5923 569.978 53.1214 573.028 51.1454C576.088 49.1684 579.318 47.8514 582.708 47.1924C586.088 46.5334 589.478 46.9094 592.868 48.3214C595.408 49.4514 597.338 50.9103 598.658 52.6983C599.978 54.4863 600.678 56.4633 600.778 58.6273C600.868 60.7923 600.378 63.0284 599.288 65.3344C598.208 67.6404 596.538 69.7813 594.278 71.7583C591.268 74.4873 587.618 76.7693 583.338 78.6053C579.058 80.4403 574.748 81.6873 570.418 82.3463C570.888 84.4173 571.858 85.9934 573.318 87.0764C574.778 88.1584 576.348 88.8414 578.048 89.1234C580.488 89.5934 583.218 89.4293 586.228 88.6293C589.248 87.8293 592.258 86.6053 595.268 84.9583C598.278 83.3113 601.178 81.3113 603.948 78.9583C606.728 76.6053 609.148 74.0164 611.218 71.1934C612.348 69.7814 613.458 68.8404 614.538 68.3694C615.618 67.8984 616.488 67.8513 617.148 68.2283C617.808 68.6053 618.138 69.3103 618.138 70.3463C618.138 71.3813 617.618 72.6524 616.588 74.1584C613.768 78.2054 610.658 81.8763 607.268 85.1703C603.878 88.4643 600.348 91.2643 596.678 93.5703C593.008 95.8763 589.218 97.6643 585.318 98.9353C581.408 100.206 577.578 100.841 573.808 100.841C569.478 100.841 565.808 99.9703 562.798 98.2293C559.788 96.4883 557.568 94.1353 556.158 91.1703C555.018 88.7643 554.438 86.0014 554.448 82.8824H554.438C551.608 85.2924 548.818 86.9253 546.068 87.7823C543.198 88.6763 540.538 88.4414 538.088 87.0764C535.638 85.7114 533.858 82.5813 532.728 77.6873C531.968 79.6643 531.218 81.8523 530.468 84.2523C529.708 86.6523 528.908 89.0763 528.068 91.5233C527.128 94.3473 525.898 96.9583 524.398 99.3583C522.888 101.759 520.398 103.618 516.908 104.935C515.498 105.5 513.998 106.088 512.398 106.7C510.798 107.312 509.428 107.594 508.298 107.547C507.168 107.5 506.468 106.959 506.178 105.924C505.898 104.888 506.418 103.006 507.738 100.276C508.958 97.6413 510.468 94.2524 512.258 90.1114L512.528 89.4724V89.4734C511.538 90.3004 510.528 91.1003 509.498 91.8763C506.068 94.4643 502.698 96.6054 499.408 98.3004C496.108 99.9944 493.338 100.841 491.078 100.841C488.908 100.841 486.938 100.512 485.148 99.8533C483.358 99.1943 481.968 98.1353 480.978 96.6763C479.998 95.2173 479.518 93.3823 479.568 91.1703C479.618 88.9583 480.348 86.2994 481.758 83.1934C483.168 80.0874 484.418 77.2873 485.498 74.7933C486.578 72.2993 487.618 69.9933 488.608 67.8753C489.598 65.7573 490.538 63.7813 491.428 61.9453C492.318 60.1103 493.198 58.2983 494.038 56.5103C494.888 54.7223 495.668 53.3104 496.368 52.2744C497.078 51.2394 497.828 50.4394 498.628 49.8744C499.428 49.3094 500.348 48.9093 501.378 48.6743C502.418 48.4393 503.688 48.1803 505.198 47.8983C506.698 47.7103 508.108 47.5683 509.428 47.4743C510.748 47.3803 511.808 47.4983 512.608 47.8273C513.408 48.1573 513.828 48.7684 513.878 49.6634C513.928 50.5574 513.478 51.8513 512.538 53.5453C511.598 55.3333 510.538 57.2393 509.358 59.2633C508.178 61.2863 507.028 63.3104 505.898 65.3344C504.768 67.3574 503.668 69.3104 502.578 71.1934C501.498 73.0754 500.538 74.7223 499.688 76.1343C498.838 77.6403 498.038 79.1233 497.288 80.5823C496.538 82.0403 495.948 83.3583 495.518 84.5343C495.098 85.7113 495.008 86.6764 495.238 87.4294C495.478 88.1824 496.158 88.5583 497.288 88.5583C499.078 88.5583 501.028 88.0883 503.148 87.1463C505.268 86.2053 507.408 84.9344 509.568 83.3354C511.738 81.7344 513.808 79.8993 515.778 77.8283C517.588 75.9343 519.158 73.9224 520.498 71.7924ZM55.2481 31.5213C58.7281 33.6853 62.4681 35.2623 66.4681 36.2503C70.4681 37.2383 74.3081 37.4503 77.9781 36.8853C81.9281 36.2273 84.9181 34.8624 86.9381 32.7914C88.9681 30.7214 90.0481 28.5793 90.1881 26.3673C90.3281 24.1563 89.5581 22.1794 87.8581 20.4384C86.1681 18.6974 83.6281 17.8264 80.2381 17.8264C78.2581 17.8264 76.1382 18.1083 73.8782 18.6733C71.6282 19.2383 69.4381 20.0383 67.3181 21.0733C65.1981 22.1083 63.2282 23.3093 61.3882 24.6733C59.5482 26.0383 58.0282 27.5674 56.7982 29.2624L55.2481 31.5213ZM190.498 74.0164C193.608 73.4524 196.828 72.4404 200.168 70.9814C203.508 69.5224 206.408 67.1463 208.848 63.8513C210.548 61.5923 210.998 59.7814 210.198 58.4164C209.398 57.0514 207.978 56.4864 205.958 56.7224C203.938 56.9574 201.578 58.2043 198.898 60.4633C196.218 62.7223 193.798 66.2994 191.628 71.1934L190.498 74.0164ZM244.568 74.0164C247.678 73.4524 250.898 72.4404 254.238 70.9814C257.588 69.5224 260.478 67.1463 262.928 63.8513C264.618 61.5923 265.068 59.7814 264.268 58.4164C263.468 57.0514 262.058 56.4864 260.028 56.7224C258.008 56.9574 255.658 58.2043 252.968 60.4633C250.288 62.7223 247.868 66.2994 245.698 71.1934L244.568 74.0164ZM412.858 28.8384C422.178 31.2854 430.858 32.7443 438.908 33.2153C446.958 33.6853 454.318 33.4974 461.008 32.6504C464.488 27.7564 467.898 23.2384 471.238 19.0974C474.578 14.9554 477.948 11.5904 481.338 9.00235C484.718 6.41435 488.108 4.72034 491.498 3.91934C494.888 3.11934 498.368 3.61434 501.948 5.40234C505.528 7.28434 507.338 9.92035 507.378 13.3084C507.428 16.6974 506.068 20.2973 503.288 24.1093C500.508 27.9213 496.468 31.6153 491.148 35.1913C485.828 38.7683 479.598 41.6863 472.438 43.9453C468.958 49.7803 465.118 55.8273 460.938 62.0873C456.748 68.3453 452.108 74.4404 447.028 80.3694C451.078 82.2524 454.818 84.1114 458.248 85.9464C461.688 87.7824 464.768 89.4523 467.498 90.9583C470.608 92.7473 473.048 94.8643 474.838 97.3123C476.628 99.7593 477.848 102.276 478.508 104.865C479.168 107.453 479.378 109.9 479.148 112.206C478.908 114.512 478.398 116.394 477.598 117.853C476.798 119.312 475.808 120.206 474.628 120.536C473.448 120.865 472.248 120.277 471.028 118.771C468.108 115.383 463.758 111.382 457.968 106.771C452.178 102.159 444.438 97.5003 434.748 92.7943C428.438 98.3473 421.588 102.912 414.198 106.488C406.818 110.065 398.698 112.089 389.848 112.559C385.048 112.841 380.698 112.347 376.788 111.077C372.888 109.806 369.638 108.088 367.048 105.924C364.458 103.759 362.598 101.241 361.468 98.3703C360.338 95.5003 360.058 92.5584 360.628 89.5464C361.188 86.5354 362.698 83.5703 365.138 80.6523C367.588 77.7343 371.118 75.1464 375.728 72.8874C380.058 70.7224 384.578 69.2633 389.288 68.5103C393.988 67.7573 398.718 67.5224 403.468 67.8044C408.228 68.0874 412.978 68.7694 417.728 69.8524C422.488 70.9344 427.118 72.2753 431.638 73.8753C435.028 69.8283 438.298 65.5923 441.448 61.1693C444.608 56.7453 447.688 52.2744 450.698 47.7574H447.168C439.828 47.7574 433.728 47.2393 428.888 46.2033C424.038 45.1683 420.158 43.8983 417.238 42.3923C414.318 40.8863 412.248 39.2863 411.028 37.5923C409.798 35.8973 409.148 34.3443 409.048 32.9333C408.958 31.5213 409.288 30.4154 410.038 29.6154C410.788 28.8154 411.728 28.5564 412.858 28.8384ZM389.848 100.276C395.398 100.276 400.668 99.0064 405.658 96.4644C410.648 93.9234 415.498 90.5353 420.198 86.2993C418.598 85.7353 416.858 85.0763 414.978 84.3233C408.388 81.9703 402.578 80.7233 397.538 80.5823C392.508 80.4403 388.318 80.9583 384.978 82.1343C381.638 83.3113 379.188 84.9113 377.638 86.9353C376.088 88.9583 375.468 90.9583 375.798 92.9353C376.128 94.9113 377.448 96.6293 379.758 98.0883C382.058 99.5473 385.428 100.276 389.848 100.276ZM496.158 13.4493C494.368 12.6963 492.348 13.6614 490.088 16.3444C487.828 19.0264 485.238 22.7674 482.318 27.5674C485.618 26.2504 488.418 24.8854 490.728 23.4734C493.028 22.0614 494.798 20.6973 496.018 19.3793C497.238 18.0613 497.878 16.8853 497.928 15.8493C497.968 14.8143 497.378 14.0143 496.158 13.4493ZM524.398 26.0154C525.058 27.6144 525.098 29.1914 524.538 30.7444C523.968 32.2974 523.008 33.7093 521.638 34.9793C520.278 36.2503 518.678 37.2853 516.838 38.0863C515.008 38.8863 513.198 39.3563 511.408 39.4973C509.618 39.6383 507.998 39.4273 506.538 38.8623C505.078 38.2973 504.068 37.2623 503.498 35.7563C502.838 34.2503 502.818 32.7213 503.428 31.1683C504.038 29.6153 505.008 28.2033 506.328 26.9323C507.638 25.6623 509.198 24.5793 510.978 23.6853C512.768 22.7913 514.538 22.2503 516.278 22.0613C518.018 21.8733 519.618 22.0854 521.078 22.6974C522.538 23.3094 523.638 24.4144 524.398 26.0154ZM543.028 54.6754C544.258 53.2634 545.808 51.4273 547.688 49.1683C549.568 46.9093 551.528 44.5094 553.548 41.9684C555.568 39.4274 557.568 36.8383 559.548 34.2033C561.528 31.5683 563.268 29.1443 564.768 26.9323C566.278 24.7203 567.408 22.8144 568.158 21.2144C568.918 19.6144 569.098 18.5793 568.728 18.1083C567.978 17.2613 566.628 17.7793 564.698 19.6613C562.778 21.5443 560.588 24.2733 558.138 27.8503C555.688 31.4263 553.128 35.5913 550.438 40.3453C547.758 45.0983 545.288 49.8744 543.028 54.6754ZM571.128 74.0164C574.228 73.4524 577.458 72.4404 580.798 70.9814C584.138 69.5224 587.028 67.1463 589.478 63.8513C591.178 61.5923 591.618 59.7814 590.818 58.4164C590.018 57.0514 588.608 56.4864 586.588 56.7224C584.558 56.9574 582.208 58.2043 579.528 60.4633C576.848 62.7223 574.418 66.2994 572.258 71.1934L571.128 74.0164Z" fill="#FFD9DA"/>
</svg>
